<svg xmlns="http://www.w3.org/2000/svg" width="512" height="512" viewBox="0 0 512 512" role="img" aria-labelledby="title desc">
<title id="title">CrumbContext logo</title>
<desc id="desc">A glowing crumb-shaped router mascot surrounded by five context lanes</desc>
<defs>
  <linearGradient id="bg" x1="0" y1="0" x2="1" y2="1">
    <stop offset="0" stop-color="#070a12"/><stop offset="1" stop-color="#10223c"/>
  </linearGradient>
  <linearGradient id="ring" x1="0" x2="1"><stop offset="0" stop-color="#8b5cf6"/><stop offset="1" stop-color="#22d3ee"/></linearGradient>
  <radialGradient id="crumb" cx="40%" cy="32%"><stop offset="0" stop-color="#f8cf75"/><stop offset="1" stop-color="#d88332"/></radialGradient>
  <filter id="glow"><feGaussianBlur stdDeviation="9" result="b"/><feMerge><feMergeNode in="b"/><feMergeNode in="SourceGraphic"/></feMerge></filter>
</defs>
<rect width="512" height="512" rx="112" fill="url(#bg)"/>
<circle cx="256" cy="256" r="186" fill="none" stroke="url(#ring)" stroke-width="8" opacity=".75" filter="url(#glow)"/>
<g fill="#22d3ee" opacity=".9">
  <circle cx="256" cy="50" r="10"/><circle cx="451" cy="193" r="10"/><circle cx="376" cy="423" r="10"/><circle cx="136" cy="423" r="10"/><circle cx="61" cy="193" r="10"/>
</g>
<g stroke="#5e6b86" stroke-width="4" opacity=".75"><line x1="256" y1="70" x2="256" y2="114"/><line x1="432" y1="199" x2="390" y2="213"/><line x1="365" y1="407" x2="339" y2="371"/><line x1="147" y1="407" x2="173" y2="371"/><line x1="80" y1="199" x2="122" y2="213"/></g>
<path d="M350 190c-35-59-124-78-184-37-61 42-80 128-40 190 39 61 126 84 188 47 47-29 71-79 65-129-33 11-67-14-62-51 14 0 25-7 33-20z" fill="url(#crumb)" stroke="#ffc96b" stroke-width="8"/>
<g fill="#6d351d"><circle cx="203" cy="203" r="15"/><circle cx="282" cy="183" r="12"/><circle cx="177" cy="281" r="11"/><circle cx="258" cy="311" r="16"/><circle cx="322" cy="267" r="10"/></g>
<g fill="none" stroke="#10223c" stroke-width="10" stroke-linecap="round"><path d="M195 244h1"/><path d="M289 244h1"/><path d="M218 278c20 18 45 18 65 0"/></g>
<path d="M115 124h74M323 124h74M94 348h82M336 348h82" stroke="url(#ring)" stroke-width="8" stroke-linecap="round" opacity=".8"/>
</svg>